<?xml version="1.0" encoding="utf-8"?>
<!-- Generator: Adobe Illustrator 21.1.0, SVG Export Plug-In . SVG Version: 6.00 Build 0)  -->
<svg version="1.1" id="Calque_1" xmlns="http://www.w3.org/2000/svg" xmlns:xlink="http://www.w3.org/1999/xlink" x="0px" y="0px"
	 viewBox="0 0 103.5 187.5" height="25px" widht="25px" style="enable-background:new 0 0 103.5 187.5;" xml:space="preserve">
<style type="text/css">
	.st0{fill-rule:evenodd;clip-rule:evenodd;fill:#589CC7;}
	.st1{clip-path:url(#SVGID_2_);fill:#D9DADA;}
	.st2{fill:#EB5760;}
	.st3{fill:#589CC7;}
</style>
<text transform="matrix(1 0 0 1 114.6525 160.4499)" class="st2" style="font-family:'MoonAndChips-Demo'; font-size:57.0477px;"> </text>
<path class="st0" d="M54.3,16.5c-18.6,0-33.7,15.1-33.7,33.7c0,16,11.2,29.4,26.1,32.9c2,0.5,1.8,1.8,1.9,3.9l5.7,88.1L60,87.2
	c0.1-2.2-0.1-3.6,1.9-4.1c15-3.5,26.1-16.9,26.1-32.9C88.1,31.6,73,16.5,54.3,16.5z"/>
<g>
	<defs>
		<rect id="SVGID_1_" x="22.8" y="26.4" width="63.1" height="52.2"/>
	</defs>
	<clipPath id="SVGID_2_">
		<use xlink:href="#SVGID_1_"  style="overflow:visible;"/>
	</clipPath>
	<path class="st1" d="M46.5,76.6c16.9,5.5,34.1-0.9,38.4-14.2c4.3-13.3-5.8-28.6-22.7-34.1c-16.9-5.5-34.1,0.9-38.4,14.2
		C19.4,55.9,29.6,71.1,46.5,76.6"/>
</g>
<g>
	<path class="st2" d="M58,28c1,0,1.2,0,2.2,0.2c0.2,0.1,0.3,0.1,0.4,0.1c0.3,0.3,0.3,0.6-0.1,0.8c-0.1,0.1-0.4,0.1-0.8,0.2
		c-1.5,0.3-3.1,0.2-4.6,0.2h-0.6c-0.3,0-0.5,0.1-0.6,0.4l-1.3,3.9c-1,3-2.7,7.4-4.8,13.1c-2.2,5.7-3.8,10.1-4.8,13
		c-0.9,2.2-1.6,4.3-2.5,6.3c-0.1,0.4-0.2,0.6-0.3,0.8c-0.2,0.6-0.6,1-1,0.7c-0.3-0.2-0.4-0.4-0.4-0.6c0-0.3,0-0.6,0.1-0.7l0.5-1.6
		c0.4-1,0.7-2,1.2-3.5c0.4-1,0.9-2.6,1.5-3.8c1.1-3,2.8-7.5,5-13.2c2.3-5.7,4-10.2,5.3-13.2c0.2-0.3,0.4-0.9,0.6-1.3
		c0-0.2-0.1-0.3-0.1-0.3c-0.7,0-1.2,0.1-1.7,0.1h-2.5c-0.2,0-0.4-0.1-0.9-0.1c-0.2,0-0.3-0.1-0.3-0.4c0-0.2,0.1-0.4,0.2-0.5
		c0.2,0,0.5-0.1,0.8-0.2c2.4-0.2,4.7-0.4,6.8-0.4H58z"/>
</g>
<g>
	<path class="st3" d="M42.7,69.7c0.9-1.9,1.7-4.2,2.7-7c0.6-1.9,1.1-3.6,1.7-5.1c1.5-4.9,3.1-9.6,5.2-14.4c0.8-2.2,1.9-4.4,2.8-6.8
		l0.4-1.1c0.1-0.2,0.4-0.3,0.7-0.3c0.3,0.1,0.4,0.4,0.3,0.8c0,0.1-0.1,0.3-0.1,0.6l-1.2,3.5c-1.9,4.9-3.6,10-5.2,15
		c-1,2.8-1.9,5.6-2.8,8.3c-0.9,2.7-1.8,4.9-2.7,7c-0.3,0.7-0.6,1.2-1,1.6c-0.3,0.2-0.6,0.3-0.8,0.1c-0.2-0.2-0.4-0.4-0.4-0.7
		C42.3,70.7,42.5,70.2,42.7,69.7z M47.6,36.6c-0.1,0.1-0.2,0.1-0.4,0c-0.1-0.1-0.1-0.2-0.1-0.4c0.7-0.6,1-0.9,1-0.9
		c1-0.7,2.2-1.4,3.5-1.9c2.2-0.9,4.6-1.6,7.2-2.1c1.5-0.3,2.8-0.4,3.9-0.3c1,0.1,1.9,0.2,2.5,0.4c0.8,0.3,1.4,0.7,1.9,1.2
		c1.1,0.9,1.4,2.2,0.9,3.6c-0.3,0.7-0.8,1.5-1.5,2.2c-1.2,1.2-2.5,2.3-3.6,3.1c-1.5,0.9-3,2-4.3,2.8c-0.3,0.2-0.7,0.5-1.2,0.8
		c-0.2,0.2-0.3,0.3-0.1,0.5c0.4,0.4,0.9,0.9,1.4,1.4c1,1.3,2.3,2.5,3.1,4c0.7,1.5,1.2,3.1,1.3,5c0.1,2.2-0.4,4.6-1.5,7.2
		c-1.4,3.4-3.5,6.2-6.2,8.6c-1.1,0.9-2.2,1.6-3.1,2L50.9,74c-1.2,0.2-2.2-0.1-2.8-1c-0.6-0.8-0.9-1.7-1-2.8c-0.2-1.3,0-2.8,0.6-4.4
		c1.4-4.1,3.8-7.5,7.2-10.1c1.7-1.3,2.8-1.9,3.5-1.6c0.6,0.2,0.6,0.5-0.2,0.8c-2.3,0.8-3.6,2.4-5.2,3.9c-1.8,2-2.8,4.1-3.8,6.4
		c-0.9,2.3-1,4.4-0.3,6.2c0.4,0.9,1.1,1.1,1.9,0.8c0.6-0.2,0.9-0.4,1.2-0.6c1.1-0.6,2.1-1.3,3-2.2c3-3.3,4.9-7,5.8-11
		c0.2-0.9,0.3-2,0.3-3.1c-0.1-1-0.5-2.3-1.1-3.8c-0.8-1.4-1.7-2.8-2.9-4.2c-0.6-0.6-0.9-0.9-1.1-1.2c-0.2-0.2-0.4-0.3-0.5-0.5
		c-0.3-0.6-0.3-1,0.1-1.4c0.2-0.3,0.6-0.6,0.9-0.7c1.3-0.9,2.5-1.7,3.8-2.3c0.6-0.4,1.5-1,2.7-2c1.2-1,2.1-2,2.8-3
		c1.5-2,1.5-3.9-2.3-4.3c-2.5-0.2-5.6,0.4-8.1,0.9C52.8,33.6,50.2,34.8,47.6,36.6z"/>
</g>
</svg>
