<svg id="Calque_1" data-name="Calque 1" xmlns="http://www.w3.org/2000/svg" xmlns:xlink="http://www.w3.org/1999/xlink" viewBox="0 0 125.73 231.2"><defs><style>.cls-1{fill:none;}.cls-2{clip-path:url(#clip-path);}.cls-3{fill:#589cc7;}.cls-4{fill:#fff;}</style><clipPath id="clip-path" transform="translate(-30.95 -9)"><rect class="cls-1" x="30.95" y="9" width="125.73" height="231.2"/></clipPath></defs><title>Parc</title><g class="cls-2"><path class="cls-3" d="M133.94,71c0-21.77-18-39.43-40.1-39.43S53.74,49.26,53.74,71s18,39.42,40.1,39.42S133.94,92.8,133.94,71m22.74-.26a61.29,61.29,0,0,1-4,21.68c-8.26,24.06-62.8,147.74-62.8,147.74S38.49,105.32,34,89.88A60.74,60.74,0,0,1,31,70.77C31,36.68,59.11,9,93.84,9s62.85,27.69,62.85,61.78" transform="translate(-30.95 -9)"/><path class="cls-3" d="M117.43,90.55h0s-12.71-12.08-14-13.24c-.78-.21-5.29-2.08-5.37-5.57A11.92,11.92,0,0,1,107,67.64h0a8,8,0,0,0,5.27-1.77c.11-.08.35-.31.35-.31L123,53.34l-1.25-1.17L109.1,64.72l-1.49-1.4,13-12.2-1.1-1L106.43,62.36l-1.24-1.16,13.12-12.27-1.21-1.13L104,60.08l-1.47-1.38,13.55-11.87-1.14-1.07-12.48,9.1s-.45.36-.62.5a6.9,6.9,0,0,0-2.2,5.86,10.68,10.68,0,0,1-2.28,6.13c-23.25-21.29-32-19-32-19l-.7.67,25.3,23.73L70.19,91.19h0l0,0a2.67,2.67,0,0,0,0,4,3.13,3.13,0,0,0,4.22,0l0,0h0L94.15,76.69l3.18,3,15.86,14.85h0s0,0,0,0a3.14,3.14,0,0,0,4.24,0,2.66,2.66,0,0,0,0-4l0,0" transform="translate(-30.95 -9)"/></g><circle class="cls-4" cx="62.86" cy="62" r="37.76"/><path class="cls-3" d="M116,80.37l.69,0a10.17,10.17,0,0,0,7-2.78,10.27,10.27,0,0,0-7-17.77h-.09a6,6,0,0,0-.09-2.49,6.27,6.27,0,0,0-4.85-4.6,6.14,6.14,0,0,0-3.21.26,12.29,12.29,0,0,0-6.76-10.08,13.87,13.87,0,0,0-12.34-.28,13.48,13.48,0,0,0-7,8.11,8,8,0,0,0-3.19,0,8.35,8.35,0,0,0-6.64,7.44c0,.27,0,.54,0,.8a.92.92,0,0,1-.8.9,7.15,7.15,0,0,0-2.33.71,7.17,7.17,0,0,0,3.73,13.6,7.1,7.1,0,0,0,4.32-2l.21.21V91.69h-1a1,1,0,0,0-1,1v4.11a1,1,0,0,0,1,1H89a1,1,0,0,0,1-1V92.72a1,1,0,0,0-1-1H88v-9l4.11,4.11V102a1,1,0,0,0,1,1h6.16a1,1,0,0,0,1-1V80.89l7-7A10.27,10.27,0,0,0,116,80.37Zm.68-6.14a4.11,4.11,0,0,0,4.11-4.11,1,1,0,0,1,2.05,0,6.16,6.16,0,0,1-6.16,6.16,1,1,0,1,1,0-2.05ZM73.57,70.12A4.11,4.11,0,0,1,69.46,66a1,1,0,0,1,2.05,0,2.06,2.06,0,0,0,2.05,2.05,1,1,0,0,1,0,2.05ZM102.4,66.8a3,3,0,0,1,2.82.21l.12.1-5.05,5.05V67.51A14.49,14.49,0,0,0,102.4,66.8ZM91.74,46.54c3.92-1.31,7.13-.87,9.27,1.28a1,1,0,1,1-1.45,1.45c-2-2-5-1.51-7.17-.78a1,1,0,1,1-.65-1.95Zm-3.48,2.3a1,1,0,1,1,1.45,1.45C88,52,88,52.72,88,54.7a1,1,0,1,1-2.05,0A6.65,6.65,0,0,1,88.26,48.84ZM84.2,66.28a5.81,5.81,0,0,1,4.5,0l.46.18a14.41,14.41,0,0,0,2.91,1.09V78.09L81,67A8.14,8.14,0,0,0,84.2,66.28ZM80.77,54.7a1,1,0,0,1,0,2.05,2.05,2.05,0,0,0,0,4.11,1,1,0,0,1,0,2.05,4.11,4.11,0,1,1,0-8.22Zm5.14,37H79.74V74.47l6.16,6.16Zm12.63-12a1,1,0,0,0-.3.73v20.48H94.12V86.38a1,1,0,0,0-.3-.73L78.75,70.58c.08-.14.16-.28.24-.43A7.45,7.45,0,0,0,79.45,69h0q.07-.24.13-.48L92.37,81.29a1,1,0,0,0,1.75-.73V67.92l.55.05c.49,0,1,.08,1.46.08h.06c.48,0,1,0,1.43-.07L98,68l.27,0v6.72a1,1,0,0,0,1.75.73L106.41,69a2.71,2.71,0,0,1,0,.36v.49c0,.25,0,.5,0,.77s.07.73.13,1.09Z" transform="translate(-30.95 -9)"/></svg>