<svg id="Calque_1" data-name="Calque 1" xmlns="http://www.w3.org/2000/svg" xmlns:xlink="http://www.w3.org/1999/xlink" viewBox="0 0 125.73 231.2"><defs><style>.cls-1{fill:none;}.cls-2{clip-path:url(#clip-path);}.cls-3{fill:#589cc7;}.cls-4{fill:#fff;}</style><clipPath id="clip-path" transform="translate(-30.95 -9)"><rect class="cls-1" x="30.95" y="9" width="125.73" height="231.2"/></clipPath></defs><title>menument</title><g class="cls-2"><path class="cls-3" d="M133.94,71c0-21.77-18-39.43-40.1-39.43S53.74,49.26,53.74,71s18,39.42,40.1,39.42S133.94,92.8,133.94,71m22.74-.26a61.29,61.29,0,0,1-4,21.68c-8.26,24.06-62.8,147.74-62.8,147.74S38.49,105.32,34,89.88A60.74,60.74,0,0,1,31,70.77C31,36.68,59.11,9,93.84,9s62.85,27.69,62.85,61.78" transform="translate(-30.95 -9)"/><path class="cls-3" d="M117.43,90.55h0s-12.71-12.08-14-13.24c-.78-.21-5.29-2.08-5.37-5.57A11.92,11.92,0,0,1,107,67.64h0a8,8,0,0,0,5.27-1.77c.11-.08.35-.31.35-.31L123,53.34l-1.25-1.17L109.1,64.72l-1.49-1.4,13-12.2-1.1-1L106.43,62.36l-1.24-1.16,13.12-12.27-1.21-1.13L104,60.08l-1.47-1.38,13.55-11.87-1.14-1.07-12.48,9.1s-.45.36-.62.5a6.9,6.9,0,0,0-2.2,5.86,10.68,10.68,0,0,1-2.28,6.13c-23.25-21.29-32-19-32-19l-.7.67,25.3,23.73L70.19,91.19h0l0,0a2.67,2.67,0,0,0,0,4,3.13,3.13,0,0,0,4.22,0l0,0h0L94.15,76.69l3.18,3,15.86,14.85h0s0,0,0,0a3.14,3.14,0,0,0,4.24,0,2.66,2.66,0,0,0,0-4l0,0" transform="translate(-30.95 -9)"/></g><circle class="cls-4" cx="62.86" cy="62" r="37.76"/><path class="cls-3" d="M114.81,77.33a7.81,7.81,0,0,0-7.81,7.8,7.44,7.44,0,0,0,.12,1.33H85.38a7.27,7.27,0,0,0,.12-1.33,7.8,7.8,0,1,0-7.8,7.8h37.1a7.8,7.8,0,0,0,0-15.6Zm0,0" transform="translate(-30.95 -9)"/><path class="cls-3" d="M96.25,83.9a1.52,1.52,0,0,0,1.52-1.52V46.22a1.52,1.52,0,1,0-3,0V82.37a1.52,1.52,0,0,0,1.52,1.52Zm0,0" transform="translate(-30.95 -9)"/><path class="cls-3" d="M91.68,83.9a1.53,1.53,0,0,0,1.52-1.52V46.22a1.52,1.52,0,1,0-3,0V82.37a1.53,1.53,0,0,0,1.52,1.52Zm0,0" transform="translate(-30.95 -9)"/><path class="cls-3" d="M87.12,83.9a1.52,1.52,0,0,0,1.52-1.52V46.22a1.52,1.52,0,1,0-3,0V82.37a1.53,1.53,0,0,0,1.52,1.52Zm0,0" transform="translate(-30.95 -9)"/><path class="cls-3" d="M100.82,83.9a1.53,1.53,0,0,0,1.52-1.52V46.22a1.52,1.52,0,1,0-3,0V82.37a1.53,1.53,0,0,0,1.52,1.52Zm0,0" transform="translate(-30.95 -9)"/><path class="cls-3" d="M105.38,83.9a1.52,1.52,0,0,0,1.52-1.52V46.22a1.52,1.52,0,1,0-3,0V82.37a1.52,1.52,0,0,0,1.52,1.52Zm0,0" transform="translate(-30.95 -9)"/><path class="cls-3" d="M114.71,94.26H77.79a1.52,1.52,0,1,0,0,3h36.92a1.52,1.52,0,0,0,0-3Zm0,0" transform="translate(-30.95 -9)"/></svg>