<svg id="Calque_1" data-name="Calque 1" xmlns="http://www.w3.org/2000/svg" xmlns:xlink="http://www.w3.org/1999/xlink" viewBox="0 0 728 14.08"><defs><style>.cls-1{fill:none;}.cls-2{clip-path:url(#clip-path);}.cls-3{fill:#c3c4c4;}</style><clipPath id="clip-path" transform="translate(-56 -13.69)"><rect class="cls-1" x="56" y="13.69" width="728" height="14.08"/></clipPath></defs><title>Trait</title><g class="cls-2"><path class="cls-3" d="M231.49,13.69H230c-27.2.38-51.23,1.65-78.3,2.51-5.27.17-10.39.48-15.8.48-1.47,0-3,0-4.48-.08-2.17-.21-3.46-.55-6.5-.62-4.43-.08-9-.12-13.57-.12-18.21,0-36.92.66-50.5,2.08l.48,0A344.86,344.86,0,0,1,96,16.58c7.65,0,15.63.12,23.93.28,3,.08,4.33.41,6.5.62,1.52.05,3,.08,4.48.08,5.41,0,10.53-.31,15.79-.48,27.08-.86,51.11-2.13,78.31-2.51h1.44c3.45,0,7,.16,10.64.32,6.27.39,10,1.17,15.15,1.45,36.32,1.41,73.89,2.11,111.67,2.11q13.5,0,27-.12,17.1-.1,33.79-.09c22.29,0,44.15.1,66,.21s43.71.21,66,.21c16,0,32.14-.05,48.69-.2,42.12-.35,82.14-1.34,123.76-2.06,4,0,7.86,0,11.7,0,8.72,0,17.25.11,26.39.46,4.72.3,16.68.75,16,1.33,3.33-.71-4.08-1.68-9.08-2-9.16-.35-17.69-.46-26.41-.46-3.83,0-7.7,0-11.68.05-41.62.72-81.64,1.71-123.73,2.06-14.51.13-28.81.18-43,.18-24.29,0-48.17-.15-72-.29s-47.74-.29-72-.29q-14.54,0-29.29.08-13.52.12-27,.12c-37.78,0-75.34-.7-111.67-2.11-5.18-.28-8.86-1.06-15.15-1.45-3.59-.16-7.19-.32-10.64-.32" transform="translate(-56 -13.69)"/><path class="cls-3" d="M61.38,18,61,18c1.09.1,2.09.22,3,.34l.42,0h0c-1-.12-2-.24-3.11-.36m721.79.14c-.31.07-.71.13-1.22.19-1.41.17-2.94.34-4.54.5l.24.05c1.47-.15,2.87-.31,4.18-.47a4,4,0,0,0,1.33-.28" transform="translate(-56 -13.69)"/><path class="cls-3" d="M226.42,14.56H225c-27.2.38-51.23,1.65-78.31,2.51-5.26.16-10.37.48-15.79.48-1.47,0-3,0-4.48-.08-2.17-.21-3.47-.54-6.5-.62-8.3-.15-16.29-.28-23.93-.28A344.82,344.82,0,0,0,61.38,18c1.11.11,2.13.24,3.11.36,5-.34,10-.45,15.11-.46,9.46,0,19.53.41,31.92.64,3,.08,4.33.41,6.5.62,1.53.05,3,.08,4.49.08,5.42,0,10.53-.31,15.78-.48,27.09-.85,51.11-2.13,78.31-2.51H218c3.45,0,7,.16,10.65.32,6.28.39,10,1.17,15.16,1.45,39.73,1.54,76.91,2.85,117.32,2.85q8,0,16.21-.07c20.76-.12,40.59-.15,60-.15l34.32,0,34.21,0c26,0,52.51-.06,80.83-.31C628.86,20,668.89,19,710.51,18.3c9.18-.07,21.16-.38,32.05-.38,4.54,0,8.9.05,12.78.2,4.43.28,19.64.31,22.07.69,1.6-.16,3.12-.33,4.54-.5.51-.06.91-.12,1.22-.19.73-.58-11.23-1-16-1.33-9.15-.35-17.68-.46-26.39-.46-3.84,0-7.72,0-11.7.05-41.62.72-81.64,1.71-123.76,2.06-16.54.15-32.72.2-48.68.2-22.27,0-44.12-.1-66-.21s-43.73-.21-66-.21q-16.71,0-33.79.09-13.51.12-27,.12c-37.78,0-75.35-.7-111.67-2.11-5.18-.28-8.88-1.07-15.15-1.45-3.6-.16-7.19-.32-10.64-.32" transform="translate(-56 -13.69)"/><path class="cls-3" d="M777.65,18.87c-2.88.3-6,.58-9.26.83l-.29,0c-3.41.41-5.87.72-8.77,1,6.26-.43,12.48-1,17.39-1.59.92-.11,1.17-.2.93-.28M108.91,20a34.24,34.24,0,0,0,3.48.64l-4.09-.14c-.55,0,6.36.29,13.62.59-2.79-.28-5.64-.54-8.61-.79q-2.14-.17-4.4-.3M416.1,23.08l-4.52.05,10.92,0c-1.7-.05-3.78-.08-6.4-.09" transform="translate(-56 -13.69)"/><path class="cls-3" d="M64.49,18.35h0m712.92.48c-2.75.28-5.73.55-8.79.79.13,0,.06.05-.22.09,3.23-.25,6.38-.53,9.26-.83l-.24-.05m-669.08,1,.57.12q2.25.14,4.4.3c3,.25,5.82.52,8.61.79l1.36.06c-3.25-.33-6.57-.64-10-.94q-2.38-.19-4.88-.33M416,23c-3.07,0-6.08.07-9,.13h4.61l4.52-.05c2.62,0,4.7,0,6.4.09h2.17c-2-.12-4.76-.18-8.65-.19" transform="translate(-56 -13.69)"/><path class="cls-3" d="M218,16.23h-1.44c-27.21.38-51.23,1.65-78.31,2.51-5.25.17-10.37.48-15.78.48-1.47,0-3,0-4.49-.08-2.16-.21-3.47-.55-6.5-.62-12.39-.23-22.46-.64-31.92-.64-5.12,0-10.07.12-15.11.45h0c2.17-.1,4.25-.14,6.32-.14,9.66,0,18.87.9,33.78,1.17a22,22,0,0,1,3.75.47q2.5.15,4.89.33c3.48.29,6.8.61,10,.94l14.54.59c21.21-.67,28-2.58,61.55-3h1.43c3.45,0,7.05.16,10.66.32,6.27.39,10,1.17,15.16,1.45,39.7,1.55,76.89,2.85,117.29,2.85q8,0,16.22-.07c11.87-.07,23-.1,33.52-.1H407c3-.06,6-.1,9-.13,3.9,0,6.62.07,8.65.19l24.6.12c17.81.1,35.47.19,54.68.19,14.6,0,30.09-.05,47.23-.21,42.1-.35,75.35-.76,117-1.48,11.4-.09,37.41-1.43,52.57-1.43,2.17,0,4.13,0,5.78.09.5,0,1.3,0,2.34,0,4.22,0,12.4-.23,20.25-.47s15.39-.47,18.32-.47a11,11,0,0,1,1.23,0c3.06-.24,6-.51,8.79-.79-2.43-.38-17.64-.41-22.07-.69-3.88-.15-8.23-.2-12.78-.2-10.89,0-22.87.31-32.05.38C668.89,19,628.86,20,586.76,20.36c-28.31.25-54.81.31-80.83.31l-34.21,0-34.32,0c-19.44,0-39.27,0-60,.15q-8.21.07-16.21.07c-40.41,0-77.58-1.3-117.31-2.85-5.18-.28-8.88-1.06-15.16-1.45-3.6-.16-7.19-.32-10.64-.32" transform="translate(-56 -13.69)"/><path class="cls-3" d="M540,26.38c-29.58.12-55.82,1-85.09,1.38h.78c29.09-.36,55.12-1.23,84.31-1.38M656.86,27h0c-9.59.5-19,.71-28.41.74,9.28,0,18.71-.23,28.41-.74" transform="translate(-56 -13.69)"/><path class="cls-3" d="M64,18.37c-2.53.12-5.18.32-8,.62,3.24.31,5.65.75,8.65.83,15.14.38,30.91.4,43.66,1.41,18.18,1.53,32.07,3.71,53.69,4.71,9.78.47,19.81.65,30,.65,17.74,0,36-.55,54.2-1.11,14.2-.38,27.75-.5,41.16-.5,21,0,41.7.3,64,.35h2.87c8.85,0,16.65.11,24.29.23s15.1.23,23.28.23l6.8,0H409c4.3,0,7.14-.07,9.24-.14s3.43-.14,4.72-.14a55.82,55.82,0,0,1,8.12.77,165.39,165.39,0,0,0,22.67,1.53h1.09A163.21,163.21,0,0,1,433,26.24c-10-1.4-4.34-2.25-20.11-2.27-20.5.16-38.18,1.24-59.76,1.3-22.29-.05-43-.35-64-.35-13.4,0-26.94.12-41.12.5-18.22.55-36.45,1.11-54.19,1.11-10.19,0-20.21-.18-30-.65-21.65-1-35.52-3.19-53.7-4.71-12.77-1-28.53-1-43.66-1.41-3-.08-5.41-.52-8.66-.83,2.13-.22,4.23-.4,6.31-.55h0" transform="translate(-56 -13.69)"/><path class="cls-3" d="M64.45,18.35l-.42,0h0l.38,0" transform="translate(-56 -13.69)"/><path class="cls-3" d="M759.34,20.74l-4,.25c-34.41,1.94-63.31,4.22-98.51,6,35.2-1.8,60.31-3.76,94.69-5.7,3.22-.19,5.63-.37,7.79-.58M548.44,26.36l-8.48,0h10.86c25.24.16,49.94,1.39,75.22,1.39h.42c-24.75,0-48.51-1.23-73.77-1.4h-4.27" transform="translate(-56 -13.69)"/><path class="cls-3" d="M64.08,18.37c-2.08.14-4.18.32-6.31.55,3.25.31,5.64.75,8.66.83,15.13.38,30.89.4,43.66,1.41,18.18,1.52,32.05,3.71,53.7,4.71,9.78.47,19.8.65,30,.65,17.74,0,36-.55,54.19-1.11,14.19-.38,27.73-.5,41.13-.5,21,0,41.72.3,64,.35,21.58-.06,39.26-1.14,59.76-1.3,15.77,0,10.15.88,20.11,2.27a163.34,163.34,0,0,0,21.89,1.52c29.28-.37,55.51-1.26,85.09-1.38l8.48,0h4.27c25.25.17,49,1.4,73.77,1.4h2c9.37,0,18.82-.24,28.41-.74,35.2-1.8,64.1-4.09,98.51-6l4-.26c2.9-.28,5.36-.59,8.77-1l.29,0c-2.62.2-5.29.39-7.92.54-34.39,1.94-63.31,4.22-98.51,6-10.39.54-20.46.74-30.38.74-24.75,0-48.52-1.23-73.76-1.4h-4.28c-32.71,0-60.89,1-92.79,1.4a165.06,165.06,0,0,1-22.66-1.53c-8.31-1.16-7.1-2-15.61-2.32l-10.92,0c-18.64.27-35.27,1.19-55.25,1.25-22.27-.05-42.93-.35-63.94-.35-13.42,0-27,.12-41.2.5-18.22.55-36.43,1.11-54.16,1.11-10.2,0-20.24-.18-30-.65-18.1-.84-30.77-2.5-45.08-3.92-7.27-.3-14.17-.59-13.62-.59l4.09.14a33.74,33.74,0,0,1-3.48-.64c-11.9-.71-25.83-.77-39.26-1.11-2-.05-3.7-.26-5.57-.48" transform="translate(-56 -13.69)"/><path class="cls-3" d="M64.49,18.35h0l-.37,0c1.87.22,3.59.43,5.57.48,13.43.34,27.36.39,39.26,1.11l-.57-.12c-11.78-.69-25.52-.74-38.76-1.08-1.82,0-3.4-.22-5.08-.42m704.12,1.26c-2.65.21-5.36.39-8,.55-34.39,1.94-63.31,4.22-98.49,6-10.39.54-20.48.74-30.4.74-24.75,0-48.51-1.23-73.75-1.4h-4.28c-32.71,0-60.9,1-92.8,1.4a165.09,165.09,0,0,1-22.65-1.53c-7.51-1.05-7.37-1.88-13.57-2.23h-2.16c8.51.27,7.29,1.16,15.61,2.32A165.06,165.06,0,0,0,460.76,27c31.89-.39,60.08-1.4,92.79-1.4h4.28c25.25.16,49,1.4,73.76,1.4,9.92,0,20-.2,30.38-.74,35.2-1.8,64.12-4.09,98.51-6,2.63-.16,5.3-.34,7.92-.54.28,0,.35-.07.22-.09M121.91,21.06c14.31,1.42,27,3.08,45.08,3.92,9.79.47,19.83.65,30,.65,17.73,0,35.94-.55,54.16-1.11,14.21-.38,27.77-.5,41.19-.5,21,0,41.68.3,63.94.35,20-.06,36.61-1,55.25-1.25H407c-16.84.34-32.38,1.12-50.73,1.17-22.29-.05-43-.35-64-.35-13.4,0-26.94.12-41.12.5-18.21.55-36.43,1.11-54.17,1.11-10.2,0-20.24-.18-30-.65-17.49-.81-29.91-2.39-43.64-3.78l-1.36-.06" transform="translate(-56 -13.69)"/><path class="cls-3" d="M70.81,18.21c-2.06,0-4.15,0-6.32.14,1.68.2,3.26.38,5.08.42,13.24.34,27,.39,38.76,1.08a22,22,0,0,0-3.75-.47c-14.91-.27-24.11-1.17-33.78-1.17m130,.45h-1.43c-33.53.46-40.33,2.38-61.55,3l-14.53-.59c13.73,1.38,26.15,3,43.64,3.78,9.79.47,19.82.65,30,.65,17.73,0,36-.55,54.17-1.11,14.18-.38,27.72-.5,41.12-.5,21,0,41.73.3,64,.35,18.35-.05,33.88-.84,50.73-1.17H393.64c-10.56,0-21.65,0-33.52.1q-8.21.07-16.22.07c-40.41,0-77.59-1.3-117.3-2.85-5.18-.28-8.89-1.06-15.16-1.45-3.61-.16-7.21-.32-10.66-.32m566.6.92c-2.94,0-10.47.23-18.32.47s-16,.47-20.25.47c-1,0-1.84,0-2.34,0-1.65-.06-3.6-.09-5.78-.09-15.16,0-41.17,1.34-52.57,1.43-41.62.72-74.88,1.13-117,1.48-17.14.15-32.63.21-47.23.21-19.21,0-36.87-.09-54.68-.19l-24.59-.12c6.19.35,6.06,1.18,13.57,2.23a165.1,165.1,0,0,0,22.65,1.53c31.9-.39,60.09-1.4,92.8-1.4h4.28c25.24.17,49,1.4,73.75,1.4,9.92,0,20-.2,30.4-.74,35.18-1.8,64.1-4.09,98.49-6,2.67-.16,5.38-.34,8-.55a11.43,11.43,0,0,0-1.23,0" transform="translate(-56 -13.69)"/></g></svg>